<svg width="50" height="58" viewBox="0 0 50 58" fill="none" xmlns="http://www.w3.org/2000/svg">
<path d="M2.72443 57.4545V48.4545H4.5142V49.554H4.59517C4.67472 49.3778 4.78977 49.1989 4.94034 49.017C5.09375 48.8324 5.29261 48.679 5.53693 48.5568C5.78409 48.4318 6.09091 48.3693 6.45739 48.3693C6.93466 48.3693 7.375 48.4943 7.77841 48.7443C8.18182 48.9915 8.50426 49.3651 8.74574 49.8651C8.98722 50.3622 9.10795 50.9858 9.10795 51.7358C9.10795 52.4659 8.99006 53.0824 8.75426 53.5852C8.52131 54.0852 8.20313 54.4645 7.79972 54.723C7.39915 54.9787 6.95028 55.1065 6.45312 55.1065C6.10085 55.1065 5.80114 55.0483 5.55398 54.9318C5.30966 54.8153 5.10938 54.669 4.95312 54.4929C4.79688 54.3139 4.67756 54.1335 4.59517 53.9517H4.53977V57.4545H2.72443ZM4.50142 51.7273C4.50142 52.1165 4.5554 52.456 4.66335 52.7457C4.77131 53.0355 4.92756 53.2614 5.1321 53.4233C5.33665 53.5824 5.58523 53.6619 5.87784 53.6619C6.1733 53.6619 6.4233 53.581 6.62784 53.419C6.83239 53.2543 6.98722 53.027 7.09233 52.7372C7.20028 52.4446 7.25426 52.108 7.25426 51.7273C7.25426 51.3494 7.2017 51.017 7.09659 50.7301C6.99148 50.4432 6.83665 50.2187 6.6321 50.0568C6.42756 49.8949 6.17614 49.8139 5.87784 49.8139C5.58239 49.8139 5.33239 49.892 5.12784 50.0483C4.92614 50.2045 4.77131 50.4261 4.66335 50.7131C4.5554 51 4.50142 51.3381 4.50142 51.7273ZM10.3182 55V48.4545H12.1335V55H10.3182ZM11.2301 47.6108C10.9602 47.6108 10.7287 47.5213 10.5355 47.3423C10.3452 47.1605 10.25 46.9432 10.25 46.6903C10.25 46.4403 10.3452 46.2259 10.5355 46.0469C10.7287 45.8651 10.9602 45.7741 11.2301 45.7741C11.5 45.7741 11.7301 45.8651 11.9205 46.0469C12.1136 46.2259 12.2102 46.4403 12.2102 46.6903C12.2102 46.9432 12.1136 47.1605 11.9205 47.3423C11.7301 47.5213 11.5 47.6108 11.2301 47.6108ZM15.4031 51.2159V55H13.5877V48.4545H15.3178V49.6094H15.3945C15.5394 49.2287 15.7823 48.9276 16.1232 48.706C16.4641 48.4815 16.8775 48.3693 17.3633 48.3693C17.8178 48.3693 18.2141 48.4688 18.5522 48.6676C18.8903 48.8665 19.1531 49.1506 19.3406 49.5199C19.5281 49.8864 19.6218 50.3239 19.6218 50.8324V55H17.8065V51.1562C17.8093 50.7557 17.707 50.4432 17.4996 50.2188C17.2923 49.9915 17.0067 49.8778 16.6431 49.8778C16.3988 49.8778 16.1829 49.9304 15.9954 50.0355C15.8107 50.1406 15.6658 50.294 15.5607 50.4957C15.4585 50.6946 15.4059 50.9347 15.4031 51.2159ZM24.0014 57.5909C23.4134 57.5909 22.9091 57.5099 22.4886 57.348C22.071 57.1889 21.7386 56.9716 21.4915 56.696C21.2443 56.4205 21.0838 56.1108 21.0099 55.767L22.6889 55.5412C22.7401 55.6719 22.821 55.794 22.9318 55.9077C23.0426 56.0213 23.1889 56.1122 23.3707 56.1804C23.5554 56.2514 23.7798 56.2869 24.044 56.2869C24.4389 56.2869 24.7642 56.1903 25.0199 55.9972C25.2784 55.8068 25.4077 55.4872 25.4077 55.0384V53.8409H25.331C25.2514 54.0227 25.1321 54.1946 24.973 54.3565C24.8139 54.5185 24.6094 54.6506 24.3594 54.7528C24.1094 54.8551 23.8111 54.9062 23.4645 54.9062C22.973 54.9062 22.5256 54.7926 22.1222 54.5653C21.7216 54.3352 21.402 53.9844 21.1634 53.5128C20.9276 53.0384 20.8097 52.4389 20.8097 51.7145C20.8097 50.973 20.9304 50.3537 21.1719 49.8565C21.4134 49.3594 21.7344 48.9872 22.1349 48.7401C22.5384 48.4929 22.9801 48.3693 23.4602 48.3693C23.8267 48.3693 24.1335 48.4318 24.3807 48.5568C24.6278 48.679 24.8267 48.8324 24.9773 49.017C25.1307 49.1989 25.2486 49.3778 25.331 49.554H25.3991V48.4545H27.2017V55.0639C27.2017 55.6207 27.0653 56.0866 26.7926 56.4616C26.5199 56.8366 26.142 57.1179 25.6591 57.3054C25.179 57.4957 24.6264 57.5909 24.0014 57.5909ZM24.0398 53.5426C24.3324 53.5426 24.5795 53.4702 24.7812 53.3253C24.9858 53.1776 25.142 52.9673 25.25 52.6946C25.3608 52.419 25.4162 52.0895 25.4162 51.706C25.4162 51.3224 25.3622 50.9901 25.2543 50.7088C25.1463 50.4247 24.9901 50.2045 24.7855 50.0483C24.581 49.892 24.3324 49.8139 24.0398 49.8139C23.7415 49.8139 23.4901 49.8949 23.2855 50.0568C23.081 50.2159 22.9261 50.4375 22.821 50.7216C22.7159 51.0057 22.6634 51.3338 22.6634 51.706C22.6634 52.0838 22.7159 52.4105 22.821 52.6861C22.929 52.9588 23.0838 53.1705 23.2855 53.321C23.4901 53.4687 23.7415 53.5426 24.0398 53.5426ZM28.8423 55V48.4545H29.8139V49.4773H29.8991C30.0355 49.1278 30.2557 48.8565 30.5597 48.6634C30.8636 48.4673 31.2287 48.3693 31.6548 48.3693C32.0866 48.3693 32.446 48.4673 32.733 48.6634C33.0227 48.8565 33.2486 49.1278 33.4105 49.4773H33.4787C33.6463 49.1392 33.8977 48.8707 34.233 48.6719C34.5682 48.4702 34.9702 48.3693 35.4389 48.3693C36.0241 48.3693 36.5028 48.5526 36.875 48.919C37.2472 49.2827 37.4332 49.8494 37.4332 50.6193V55H36.4276V50.6193C36.4276 50.1364 36.2955 49.7912 36.0312 49.5838C35.767 49.3764 35.456 49.2727 35.098 49.2727C34.6378 49.2727 34.2813 49.4119 34.0284 49.6903C33.7756 49.9659 33.6491 50.3153 33.6491 50.7386V55H32.6264V50.517C32.6264 50.1449 32.5057 49.8452 32.2642 49.6179C32.0227 49.3878 31.7116 49.2727 31.331 49.2727C31.0696 49.2727 30.8253 49.3423 30.598 49.4815C30.3736 49.6207 30.1918 49.8139 30.0526 50.0611C29.9162 50.3054 29.848 50.5881 29.848 50.9091V55H28.8423ZM42.0163 55.1364C41.3857 55.1364 40.8416 54.9972 40.3842 54.7188C39.9297 54.4375 39.5788 54.0455 39.3317 53.5426C39.0874 53.0369 38.9652 52.4489 38.9652 51.7784C38.9652 51.108 39.0874 50.517 39.3317 50.0057C39.5788 49.4915 39.9226 49.0909 40.3629 48.804C40.8061 48.5142 41.3232 48.3693 41.9141 48.3693C42.255 48.3693 42.5916 48.4261 42.924 48.5398C43.2564 48.6534 43.5589 48.8381 43.8317 49.0938C44.1044 49.3466 44.3217 49.6818 44.4837 50.0994C44.6456 50.517 44.7266 51.0312 44.7266 51.642V52.0682H39.6811V51.1989H43.7038C43.7038 50.8295 43.63 50.5 43.4822 50.2102C43.3374 49.9205 43.13 49.6918 42.8601 49.5241C42.593 49.3565 42.2777 49.2727 41.9141 49.2727C41.5135 49.2727 41.1669 49.3722 40.8743 49.571C40.5845 49.767 40.3615 50.0227 40.2053 50.3381C40.049 50.6534 39.9709 50.9915 39.9709 51.3523V51.9318C39.9709 52.4261 40.0561 52.8452 40.2266 53.1889C40.3999 53.5298 40.6399 53.7898 40.9467 53.9688C41.2536 54.1449 41.6101 54.233 42.0163 54.233C42.2805 54.233 42.5192 54.196 42.7322 54.1222C42.9482 54.0455 43.1342 53.9318 43.2905 53.7812C43.4467 53.6278 43.5675 53.4375 43.6527 53.2102L44.6243 53.483C44.522 53.8125 44.3501 54.1023 44.1087 54.3523C43.8672 54.5994 43.5689 54.7926 43.2138 54.9318C42.8587 55.0682 42.4595 55.1364 42.0163 55.1364Z" fill="#1E1D1D"/>
<g filter="url(#filter0_dd_4_55)">
<mask id="path-2-inside-1_4_55" fill="white">
<path fill-rule="evenodd" clip-rule="evenodd" d="M25 42C36.598 42 46 32.598 46 21C46 9.40202 36.598 0 25 0C13.402 0 4 9.40202 4 21V42H25Z"/>
</mask>
<path fill-rule="evenodd" clip-rule="evenodd" d="M25 42C36.598 42 46 32.598 46 21C46 9.40202 36.598 0 25 0C13.402 0 4 9.40202 4 21V42H25Z" fill="url(#paint0_linear_4_55)"/>
<path d="M4 42H2V44H4V42ZM44 21C44 31.4934 35.4934 40 25 40V44C37.7025 44 48 33.7025 48 21H44ZM25 2C35.4934 2 44 10.5066 44 21H48C48 8.29745 37.7026 -2 25 -2V2ZM6 21C6 10.5066 14.5066 2 25 2V-2C12.2975 -2 2 8.29745 2 21H6ZM6 42V21H2V42H6ZM25 40H4V44H25V40Z" fill="black" mask="url(#path-2-inside-1_4_55)"/>
<path d="M4 42H2V44H4V42ZM44 21C44 31.4934 35.4934 40 25 40V44C37.7025 44 48 33.7025 48 21H44ZM25 2C35.4934 2 44 10.5066 44 21H48C48 8.29745 37.7026 -2 25 -2V2ZM6 21C6 10.5066 14.5066 2 25 2V-2C12.2975 -2 2 8.29745 2 21H6ZM6 42V21H2V42H6ZM25 40H4V44H25V40Z" fill="black" fill-opacity="0.2" mask="url(#path-2-inside-1_4_55)"/>
</g>
<path d="M19.0831 26.1293C18.755 26.1293 18.4732 26.0133 18.2379 25.7812C18.0059 25.5459 17.8899 25.2642 17.8899 24.9361C17.8899 24.6113 18.0059 24.3329 18.2379 24.1009C18.4732 23.8688 18.755 23.7528 19.0831 23.7528C19.4013 23.7528 19.6797 23.8688 19.9183 24.1009C20.157 24.3329 20.2763 24.6113 20.2763 24.9361C20.2763 25.1548 20.2199 25.3554 20.1072 25.5376C19.9979 25.7166 19.8537 25.8608 19.6747 25.9702C19.4957 26.0762 19.2985 26.1293 19.0831 26.1293ZM23.253 26.1293C22.9249 26.1293 22.6432 26.0133 22.4078 25.7812C22.1758 25.5459 22.0598 25.2642 22.0598 24.9361C22.0598 24.6113 22.1758 24.3329 22.4078 24.1009C22.6432 23.8688 22.9249 23.7528 23.253 23.7528C23.5712 23.7528 23.8496 23.8688 24.0882 24.1009C24.3269 24.3329 24.4462 24.6113 24.4462 24.9361C24.4462 25.1548 24.3899 25.3554 24.2772 25.5376C24.1678 25.7166 24.0236 25.8608 23.8446 25.9702C23.6657 26.0762 23.4685 26.1293 23.253 26.1293ZM27.4229 26.1293C27.0948 26.1293 26.8131 26.0133 26.5778 25.7812C26.3458 25.5459 26.2298 25.2642 26.2298 24.9361C26.2298 24.6113 26.3458 24.3329 26.5778 24.1009C26.8131 23.8688 27.0948 23.7528 27.4229 23.7528C27.7411 23.7528 28.0195 23.8688 28.2582 24.1009C28.4968 24.3329 28.6161 24.6113 28.6161 24.9361C28.6161 25.1548 28.5598 25.3554 28.4471 25.5376C28.3377 25.7166 28.1935 25.8608 28.0146 25.9702C27.8356 26.0762 27.6384 26.1293 27.4229 26.1293Z" fill="white"/>
<defs>
<filter id="filter0_dd_4_55" x="0" y="0" width="50" height="50" filterUnits="userSpaceOnUse" color-interpolation-filters="sRGB">
<feFlood flood-opacity="0" result="BackgroundImageFix"/>
<feColorMatrix in="SourceAlpha" type="matrix" values="0 0 0 0 0 0 0 0 0 0 0 0 0 0 0 0 0 0 127 0" result="hardAlpha"/>
<feOffset dy="4"/>
<feGaussianBlur stdDeviation="2"/>
<feComposite in2="hardAlpha" operator="out"/>
<feColorMatrix type="matrix" values="0 0 0 0 0 0 0 0 0 0 0 0 0 0 0 0 0 0 0.25 0"/>
<feBlend mode="normal" in2="BackgroundImageFix" result="effect1_dropShadow_4_55"/>
<feColorMatrix in="SourceAlpha" type="matrix" values="0 0 0 0 0 0 0 0 0 0 0 0 0 0 0 0 0 0 127 0" result="hardAlpha"/>
<feOffset dy="4"/>
<feGaussianBlur stdDeviation="2"/>
<feComposite in2="hardAlpha" operator="out"/>
<feColorMatrix type="matrix" values="0 0 0 0 0 0 0 0 0 0 0 0 0 0 0 0 0 0 0.25 0"/>
<feBlend mode="normal" in2="effect1_dropShadow_4_55" result="effect2_dropShadow_4_55"/>
<feBlend mode="normal" in="SourceGraphic" in2="effect2_dropShadow_4_55" result="shape"/>
</filter>
<linearGradient id="paint0_linear_4_55" x1="14.5" y1="21" x2="14.5" y2="42" gradientUnits="userSpaceOnUse">
<stop stop-color="#5AAFFF"/>
<stop offset="1" stop-color="#8E44AD"/>
</linearGradient>
</defs>
</svg>
